<svg xmlns="http://www.w3.org/2000/svg" xmlns:xlink="http://www.w3.org/1999/xlink" viewBox="0 0 1008 802.74"><defs><style>.cls-1{isolation:isolate;}.cls-10,.cls-11,.cls-12,.cls-13,.cls-14,.cls-15,.cls-16,.cls-17,.cls-18,.cls-19,.cls-2,.cls-20,.cls-21,.cls-22,.cls-23,.cls-24,.cls-25,.cls-26,.cls-27,.cls-28,.cls-29,.cls-3,.cls-30,.cls-31,.cls-32,.cls-33,.cls-34,.cls-35,.cls-37,.cls-38,.cls-4,.cls-5,.cls-6,.cls-7,.cls-8,.cls-9{fill-rule:evenodd;}.cls-2{fill:url(#Áåçûìÿííûé_ãðàäèåíò_262);}.cls-12,.cls-14,.cls-17,.cls-21,.cls-22,.cls-24,.cls-25,.cls-26,.cls-28,.cls-3,.cls-34,.cls-35,.cls-36,.cls-4,.cls-6{mix-blend-mode:multiply;}.cls-3{fill:url(#Áåçûìÿííûé_ãðàäèåíò_2);}.cls-4{fill:url(#Áåçûìÿííûé_ãðàäèåíò_2-2);}.cls-5{fill:url(#Áåçûìÿííûé_ãðàäèåíò_501);}.cls-6{fill:url(#Áåçûìÿííûé_ãðàäèåíò_2-3);}.cls-7{fill:url(#Áåçûìÿííûé_ãðàäèåíò_305);}.cls-8{fill:url(#Áåçûìÿííûé_ãðàäèåíò_501-2);}.cls-9{fill:#779aff;}.cls-10{fill:#562781;}.cls-11{fill:#8d68c5;}.cls-12{fill:url(#Áåçûìÿííûé_ãðàäèåíò_322);}.cls-13{fill:#7c4881;}.cls-14,.cls-17,.cls-24,.cls-25,.cls-26{opacity:0.2;}.cls-14{fill:url(#Áåçûìÿííûé_ãðàäèåíò_322-2);}.cls-15{fill:#c3939b;}.cls-15,.cls-23{mix-blend-mode:soft-light;}.cls-16{fill:url(#Áåçûìÿííûé_ãðàäèåíò_512);}.cls-17{fill:url(#Áåçûìÿííûé_ãðàäèåíò_322-3);}.cls-18{fill:url(#Áåçûìÿííûé_ãðàäèåíò_475);}.cls-19{fill:url(#Áåçûìÿííûé_ãðàäèåíò_241);}.cls-20{fill:url(#Áåçûìÿííûé_ãðàäèåíò_493);}.cls-21,.cls-22{opacity:0.5;}.cls-21{fill:url(#Áåçûìÿííûé_ãðàäèåíò_322-4);}.cls-22{fill:url(#Áåçûìÿííûé_ãðàäèåíò_322-5);}.cls-23{fill:#c49fcc;}.cls-24{fill:url(#Áåçûìÿííûé_ãðàäèåíò_322-6);}.cls-25{fill:url(#Áåçûìÿííûé_ãðàäèåíò_322-7);}.cls-26{fill:url(#Áåçûìÿííûé_ãðàäèåíò_322-8);}.cls-27{fill:#866798;}.cls-28{fill:url(#Áåçûìÿííûé_ãðàäèåíò_2-4);}.cls-29{fill:url(#Áåçûìÿííûé_ãðàäèåíò_512-2);}.cls-30{fill:url(#Áåçûìÿííûé_ãðàäèåíò_512-3);}.cls-31{fill:url(#Áåçûìÿííûé_ãðàäèåíò_512-4);}.cls-32{fill:url(#Áåçûìÿííûé_ãðàäèåíò_6);}.cls-33{fill:#9063ff;}.cls-34,.cls-35{opacity:0.3;}.cls-34{fill:url(#Áåçûìÿííûé_ãðàäèåíò_322-9);}.cls-35{fill:url(#Áåçûìÿííûé_ãðàäèåíò_322-10);}.cls-36{opacity:0.4;}.cls-37{fill:#ad8d85;}.cls-38{fill:#a95181;}</style><linearGradient id="Áåçûìÿííûé_ãðàäèåíò_262" x1="559.44" y1="746.37" x2="559.44" y2="171.34" gradientUnits="userSpaceOnUse"><stop offset="0" stop-color="#090d4c"/><stop offset="1" stop-color="#811b74"/></linearGradient><linearGradient id="Áåçûìÿííûé_ãðàäèåíò_2" x1="425.29" y1="367.5" x2="425.29" y2="229.95" gradientUnits="userSpaceOnUse"><stop offset="0" stop-color="#435cdc"/><stop offset="1" stop-color="#0a1393"/></linearGradient><linearGradient id="Áåçûìÿííûé_ãðàäèåíò_2-2" x1="454.7" y1="543.28" x2="454.7" y2="493.55" xlink:href="#Áåçûìÿííûé_ãðàäèåíò_2"/><linearGradient id="Áåçûìÿííûé_ãðàäèåíò_501" x1="228.33" y1="704.08" x2="228.33" y2="310.3" gradientUnits="userSpaceOnUse"><stop offset="0" stop-color="#523184"/><stop offset="0.56" stop-color="#722295"/><stop offset="1" stop-color="#638afe"/></linearGradient><linearGradient id="Áåçûìÿííûé_ãðàäèåíò_2-3" x1="786.46" y1="392.71" x2="786.46" y2="323.35" xlink:href="#Áåçûìÿííûé_ãðàäèåíò_2"/><linearGradient id="Áåçûìÿííûé_ãðàäèåíò_305" x1="745.96" y1="399.14" x2="745.96" y2="383.24" gradientUnits="userSpaceOnUse"><stop offset="0" stop-color="#523184"/><stop offset="0.56" stop-color="#a73d7e"/><stop offset="1" stop-color="#ff5c7a"/></linearGradient><linearGradient id="Áåçûìÿííûé_ãðàäèåíò_501-2" x1="747.91" y1="733.42" x2="747.91" y2="314.82" xlink:href="#Áåçûìÿííûé_ãðàäèåíò_501"/><linearGradient id="Áåçûìÿííûé_ãðàäèåíò_322" x1="166.6" y1="545.96" x2="260.64" y2="545.96" gradientUnits="userSpaceOnUse"><stop offset="0" stop-color="#977cff"/><stop offset="1" stop-color="#4513b6"/></linearGradient><linearGradient id="Áåçûìÿííûé_ãðàäèåíò_322-2" x1="232.82" y1="399.42" x2="649.89" y2="399.42" xlink:href="#Áåçûìÿííûé_ãðàäèåíò_322"/><linearGradient id="Áåçûìÿííûé_ãðàäèåíò_512" x1="293.6" y1="699.35" x2="624.31" y2="699.35" gradientUnits="userSpaceOnUse"><stop offset="0" stop-color="#090d4c"/><stop offset="1" stop-color="#000031"/></linearGradient><linearGradient id="Áåçûìÿííûé_ãðàäèåíò_322-3" x1="763.59" y1="666.89" x2="919.8" y2="666.89" xlink:href="#Áåçûìÿííûé_ãðàäèåíò_322"/><linearGradient id="Áåçûìÿííûé_ãðàäèåíò_475" x1="149.89" y1="699.6" x2="149.89" y2="498.93" gradientUnits="userSpaceOnUse"><stop offset="0" stop-color="#060e4d"/><stop offset="0.23" stop-color="#0b0e4f"/><stop offset="0.48" stop-color="#180f55"/><stop offset="0.63" stop-color="#240f5b"/><stop offset="0.73" stop-color="#381562"/><stop offset="0.92" stop-color="#6b2575"/><stop offset="1" stop-color="#802c7d"/></linearGradient><linearGradient id="Áåçûìÿííûé_ãðàäèåíò_241" x1="147.92" y1="699.58" x2="147.92" y2="664.32" gradientUnits="userSpaceOnUse"><stop offset="0" stop-color="#090d4c"/><stop offset="1" stop-color="#361a6a"/></linearGradient><linearGradient id="Áåçûìÿííûé_ãðàäèåíò_493" x1="121.33" y1="692.49" x2="121.33" y2="524.12" gradientUnits="userSpaceOnUse"><stop offset="0" stop-color="#523184"/><stop offset="0.56" stop-color="#722e7f"/><stop offset="1" stop-color="#7f73fe"/></linearGradient><linearGradient id="Áåçûìÿííûé_ãðàäèåíò_322-4" x1="158.36" y1="667.14" x2="235.22" y2="667.14" xlink:href="#Áåçûìÿííûé_ãðàäèåíò_322"/><linearGradient id="Áåçûìÿííûé_ãðàäèåíò_322-5" x1="105.7" y1="671.86" x2="178.06" y2="671.86" xlink:href="#Áåçûìÿííûé_ãðàäèåíò_322"/><linearGradient id="Áåçûìÿííûé_ãðàäèåíò_322-6" x1="161.99" y1="441.73" x2="626.42" y2="441.73" xlink:href="#Áåçûìÿííûé_ãðàäèåíò_322"/><linearGradient id="Áåçûìÿííûé_ãðàäèåíò_322-7" x1="215.42" y1="677.98" x2="705.14" y2="677.98" xlink:href="#Áåçûìÿííûé_ãðàäèåíò_322"/><linearGradient id="Áåçûìÿííûé_ãðàäèåíò_322-8" x1="321.44" y1="231.11" x2="545.76" y2="231.11" xlink:href="#Áåçûìÿííûé_ãðàäèåíò_322"/><linearGradient id="Áåçûìÿííûé_ãðàäèåíò_2-4" x1="743.48" y1="525.07" x2="743.48" y2="473.12" xlink:href="#Áåçûìÿííûé_ãðàäèåíò_2"/><linearGradient id="Áåçûìÿííûé_ãðàäèåíò_512-2" x1="106.86" y1="592.98" x2="106.86" y2="564.19" xlink:href="#Áåçûìÿííûé_ãðàäèåíò_512"/><linearGradient id="Áåçûìÿííûé_ãðàäèåíò_512-3" x1="212.07" y1="365.54" x2="212.07" y2="352.2" xlink:href="#Áåçûìÿííûé_ãðàäèåíò_512"/><linearGradient id="Áåçûìÿííûé_ãðàäèåíò_512-4" x1="341.66" y1="272.38" x2="341.66" y2="248.05" xlink:href="#Áåçûìÿííûé_ãðàäèåíò_512"/><linearGradient id="Áåçûìÿííûé_ãðàäèåíò_6" x1="673.57" y1="692.74" x2="673.57" y2="681.95" gradientUnits="userSpaceOnUse"><stop offset="0" stop-color="#6f276a"/><stop offset="1" stop-color="#090d4c"/></linearGradient><linearGradient id="Áåçûìÿííûé_ãðàäèåíò_322-9" x1="691.26" y1="434.29" x2="865.12" y2="434.29" xlink:href="#Áåçûìÿííûé_ãðàäèåíò_322"/><linearGradient id="Áåçûìÿííûé_ãðàäèåíò_322-10" x1="687.36" y1="418.27" x2="860.4" y2="418.27" xlink:href="#Áåçûìÿííûé_ãðàäèåíò_322"/></defs><g class="cls-1"><g id="space_background" data-name="space background"><polygon class="cls-2" points="268.12 695.69 186.46 318.24 191.49 310.28 291.47 278.22 312.51 231.11 433.73 171.34 524.63 214.17 666.26 493.56 684.79 525.93 743.68 572.73 690.97 373.92 717.41 314 821.58 262.55 880.34 358.03 932.43 718.19 313.73 746.37 268.12 695.69"/><path class="cls-3" d="M303.83,230l13.63,3.62L347.72,306,430,358.86s53.27,3.41,86.94,0,55.4-11.08,55.4-11.08l-19.6,11.08s-79.27,15.77-126.15,4.69c0,0-74.59-41.34-122.74-88.22l-25.57.85S290.29,237.89,303.83,230Z"/><path class="cls-4" d="M649.88,493.55l-23,32.38-57.13-3.7s-145.45,21.59-202.3,21l-107.94-18.2H351l67.8-3.35,31.37-1.52,84.94-4.2,85.26-2.85Z"/><path class="cls-5" d="M298.29,641l-4.71,63.08L205,697.26,173.41,577.05l9.39-10.2-16.21-7.68-1.17-26.07-.39-9-6.66-150.13s15-43.21,33-63.63l62.82,197.86,1.94,6.12,3.43,10.79Z"/><path class="cls-6" d="M841.93,323.35l-9.62,8.54s-56,32.38-72.2,45.74c-2.38,2-7.14,6-9.08,7.76l-20,7.32,3.4-7.32S820.35,328.46,841.93,323.35Z"/><path class="cls-7" d="M753.6,383.24l-15.27,15.9C738.91,398.32,743.2,392.48,753.6,383.24Z"/><path class="cls-8" d="M822.06,733.42H788l-9.67-18.55L743.08,574.52l-22.44-16.21L673.76,373.93s12.86-36.2,40.91-59.11l23.58,84.4-7.09,95.15S759.56,616.72,822.06,733.42Z"/><path class="cls-9" d="M317.46,233.57l136.38-29.84,74.5,20.46s-57.45-40.06-103-52.85c0,0-67.34,21.75-121.46,58.61Z"/><polygon class="cls-9" points="191.31 310.28 299.99 280.02 303.83 275.33 278.25 276.19 191.31 310.28"/><path class="cls-10" d="M743.08,574.51,443.61,548.09H357.52l-98.76-14.6,1.88-1.88,106.83,11.65s132.48-6.85,202.29-21l66.49,3.7h31.53S722.56,548.67,743.08,574.51Z"/><polygon class="cls-11" points="173.41 577.07 218.59 561.73 258.76 533.49 260.64 531.61 182.79 566.84 173.41 577.07"/><polygon class="cls-12" points="166.6 559.17 259.5 525.07 260.64 531.61 182.79 566.84 166.6 559.17"/><path class="cls-13" d="M569.76,522.23l173.32,52.28s-17.05-22.73-75.3-48.58Z"/><polygon class="cls-13" points="367.47 543.26 357.52 548.09 446.83 548.37 441.47 538.14 367.47 543.26"/><path class="cls-9" d="M673.75,373.92l19.89-55.12s56.26-50.57,106.26-56.25c0,0-44.32,10.79-81.26,57.39Z"/><path class="cls-10" d="M738.25,399.21l39-29.11,70.42-22.32-15.34-15.91S761.4,368,738.25,399.21Z"/><polygon class="cls-14" points="232.82 298.72 477.79 518.81 620.34 513.14 649.88 493.56 596.19 368.24 535.67 373.92 402.18 368.16 299.99 280.02 232.82 298.72"/><polygon class="cls-15" points="298.29 641 511.8 681.91 624.31 711.68 294.87 687.02 298.29 641"/><polygon class="cls-16" points="294.87 687.02 415.77 687.02 459.59 699.35 624.31 711.68 293.6 704.07 294.87 687.02"/><path class="cls-17" d="M763.59,600.35,903.79,641l16,83.57-97.74,8.85S777.16,640.22,763.59,600.35Z"/><path class="cls-18" d="M235.21,699.6,205,697.26,64.58,695l14.81-65.34-1.64-8.89L74,600l-1.79-10-1.72-9.23-5.88-32.38c26.73-36.94,56.85-49.45,56.85-49.45h12.51l21.7,46.87L162,559.64l.31.66,6.35,12.16,25.8,49.25Z"/><polygon class="cls-19" points="71.53 664.32 109.49 672.25 133.92 687.02 235.22 699.58 60.61 695.38 71.53 664.32"/><polygon class="cls-20" points="64.6 548.37 85.74 524.12 115.17 602.63 158.36 649.52 178.06 692.49 140.17 651.22 79.37 629.63 64.6 548.37"/><polygon class="cls-21" points="158.36 649.52 201.27 634.71 235.22 699.58 178.06 692.49 158.36 649.52"/><polygon class="cls-22" points="140.17 651.22 105.7 671.46 133.92 687.02 178.06 692.49 140.17 651.22"/><path class="cls-13" d="M785,359.56h25.43l37.18-11.78-15.34-15.91S793.9,353.54,785,359.56Z"/><path class="cls-23" d="M640.13,463.63c-74.65-8.3-148.38,31.48-223.34,25-18.47-1.6-36.79-6-55.3-5.45-20.53.58-40.44,7.21-60.9,8.73-30.39,2.22-61.64-6.82-91,1.24-15.63,4.33-29.73,13.29-45.08,18.28l-2.07-46.37-.43-9.55-.35-7.67c8.69-12.24,27.71-24.71,36.79-33.32,3.23-3,6.54-6.12,10.63-7.75,4.41-1.76,9.28-1.64,14-1.52,34.72.85,70.37,1.91,102.4,15.31,7.79,3.23,15.55,7.25,24,7.68,6.81.39,13.52-1.64,20.1-3.47A382.61,382.61,0,0,1,443.32,412c7.95-.59,16-.94,23.93.35,9.27,1.52,18.08,5.22,27.39,6.43,19.79,2.57,40.05-6.43,59.61-2.22,9.28,2,18.24,6.93,27.67,5.76,12.82-1.63,22.41-14.14,35.26-15.23h.43c1.72,3.74,3.39,7.52,5,11.3,1.28,3,2.57,6,3.78,8.92C631.76,440.33,636.43,453,640.13,463.63Z"/><path class="cls-24" d="M626.42,427.31c-22.87,10.09-51.63,7.6-77.62,6.08-102.4-6-204.84,16.95-307.28,11.18-16.09-.89-32.61-2.41-47.89,2.69C182.57,451,172.75,459,162.42,465.07l-.43-9.55c17-10.29,41.54-17.84,53.7-22.91a27.94,27.94,0,0,1,9-2.61c4.52-.35,8.92,1.4,13.25,2.73,13.87,4.21,28.56,4.52,43,4.79,31.84.55,63.83,1.13,95.47-2.84,17.81-2.23,35.42-5.89,53.3-7.25,12.24-.94,24.47-.78,36.75-.66q45.18.53,90.43,1c19.06.19,38.62.35,56.62-6,3-1,6-2.3,9.12-3.39C623.92,421.35,625.21,424.35,626.42,427.31Z"/><path class="cls-23" d="M455.52,520.59c-12.24,1-24.51,1.25-36.75,1.13-36.2-.43-72.43-4.67-108.67-6.78a531.38,531.38,0,0,0-54-.66c-30.7,1.33-61.09,6.31-89.27,18.28-.46.19-.93.39-1.4.54l-.39-9c20.54-9.58,49.18-12.74,70-14.69,6.35-.58,12.75-1,19.14-1.21,25.71-.89,51.59,1.06,77.3,3q59.32,4.5,118.69,9C451.93,520.32,453.72,520.44,455.52,520.59Z"/><path class="cls-23" d="M907,657.63q-25.72.76-51.32,3.2c-22.64,2.14-46.52,5.77-64,20.34a277.76,277.76,0,0,0-19.25-54c-7.13-15-18.9-28.52,4-33,8-1.6,101.38-5.84,116-12.39Z"/><path class="cls-23" d="M883.94,537.47a34.91,34.91,0,0,1-5.3.31c-42.51.7-85.22,16.25-126.75,7.13-5.77-1.29-11.07-3.2-14.58-7.87,9.2-4.41,25.21.07,35.7.46,13.32.51,26.69.39,40-.31s26.62-2,39.83-3.93c5.26-.74,19.63-5.69,29-7Z"/><path class="cls-23" d="M270.86,612.15c4.68-2.62,9.46-5.39,14.77-6.15,6.71-1,13.4,1.37,19.89,3.34,43.24,13.12,89.38,10.77,134.55,11.25a1037.92,1037.92,0,0,1,316.14,52.95c3.71,1.24,7.58,2.6,10.24,5.47,7.21,7.78,1.87,21.89,8.78,29.93a371,371,0,0,0-136.09-47.57c-19.18-2.7-38.72-3.93-57.17-9.82-14.33-4.58-27.69-11.88-42.07-16.32-21.39-6.6-44.16-6.63-66.54-7.1a1527.26,1527.26,0,0,1-159.92-11.74c-10.92-1.38-22.17-2.86-32.81,0-6.44,1.7-12.35,4.91-18.2,8.08L210.1,652.85c-2.5,1.36-3.57-10.36-1.39-12.9,3.29-3.86,16.42-6.11,21.23-8.08A376.31,376.31,0,0,0,270.86,612.15Z"/><path class="cls-25" d="M277.29,635.38c5.47-2.48,11.06-5,17-5.57s11.71.73,17.46,2c74.54,16,151.33,19.55,225.74,36.07,31,6.88,61.43,16,91.85,25.06,26.5,7.92,53.62,16.14,75.76,32.71-36.71,4-72.62-10.19-107.58-22.09-87.88-29.93-179.69-46.83-271.74-58.84-9.37-1.22-18.81-2.4-28.23-1.78-16.11,1.06-31.37,7.28-46.3,13.43-12,4.94-24.77,10.52-31.6,21.55,2.7-4.36-6.32-10.19-3.83-14.53,2.13-3.71,15.56-7.2,19.58-9Z"/><path class="cls-23" d="M566.72,307.26c-31.13-1.44-62.34-3.39-92.85-9.63-20.53-4.2-40.64-10.28-60.86-15.74-32.54-8.73-65.5-15.78-98.43-22.83-7.83-1.72-19.25-2.07-26.69-5.53,1.91-3.94,4-7.91,6.12-11.5,8.3,2,18.82,6.39,23.57,7.6,11.77,2.88,23.54,5.81,35.34,8.69,43.41,10.71,86.82,21.43,130.34,31.6,7.48,1.75,15,3.51,22.64,3.58,7.79.08,15.51-1.52,23.11-3.11,10.71-2.26,21.39-4.48,32.1-6.74C563.41,291.83,565.24,299.86,566.72,307.26Z"/><path class="cls-26" d="M545.76,243.86c-.9.2-1.67.39-2.3.55-16.52,4.05-33.82,3.78-50.73,3.51-42.71-.71-85.8-1.45-127.38-11.15-15.35-3.58-30.7-8.53-43.91-17,3.12-1.75,6.51-3.62,10.17-5.57,2.45,4.29,8.18,6.74,13.21,8.38,21.51,7,43.09,14.1,65.46,17.49,25.52,3.86,51.51,2.89,77.23.82,16.91-1.32,34.75-3.58,49.6-11.1a1.07,1.07,0,0,1,.27.19A133.18,133.18,0,0,1,545.76,243.86Z"/><polygon class="cls-27" points="248.72 537 264.65 543.26 281.04 534.32 260.64 531.61 248.72 537"/><polygon class="cls-9" points="186.46 318.24 194.23 319.45 207.53 303.92 191.31 310.28 186.46 318.24"/><polygon class="cls-9" points="308.21 231.11 321.44 243.08 339.26 228.8 308.21 231.11"/><path class="cls-23" d="M194.49,621.71a6.33,6.33,0,0,1-1.29.62c-18.7,7.17-40.36,4.21-58.13-5.06-6.2-3.24-12.32-7.29-19.29-7.6-4.6-.2-9,1.28-13.4,2.76q-12.28,4.16-24.63,8.3L74,600l-1.79-10c7.64-7.6,19.91-12.47,29.81-16.13,5.22-1.91,45-13.52,60-14.22l.31.66,6.35,12.16Z"/><path class="cls-23" d="M168.69,572.46q-26.24,3.91-52.52,7.94a116.7,116.7,0,0,0-18.63,3.86C90.37,586.64,81.84,594.63,74,600l-1.79-10-1.72-9.23c3.28-3,7.29-5.11,11.3-7.14a367.93,367.93,0,0,1,73.88-27.82L162,559.64l.31.66Z"/><polygon class="cls-28" points="732.12 511.44 769.13 473.12 736.83 521.13 717.83 525.07 732.12 511.44"/><polygon class="cls-29" points="101.99 573.86 101.99 564.19 116.17 580.4 111.55 592.98 97.54 584.26 101.99 573.86"/><polygon class="cls-30" points="191.31 365.54 204.62 352.2 232.82 358.87 207.53 361.37 191.31 365.54"/><polygon class="cls-31" points="325.8 260.37 357.52 248.05 333.67 272.38 325.8 260.37"/><polygon class="cls-32" points="700.15 687.02 679.06 681.95 647 692.49 692.35 692.74 700.15 687.02"/><polygon class="cls-27" points="97.54 584.26 116.17 580.4 111.55 592.98 97.54 584.26"/><polygon class="cls-27" points="191.31 365.54 207.53 365.54 232.82 358.87 207.53 361.37 191.31 365.54"/><polygon class="cls-27" points="647 692.49 680.05 687.02 700.15 687.02 692.35 692.74 647 692.49"/><polygon class="cls-33" points="328.96 265.19 357.52 248.05 333.67 272.38 328.96 265.19"/><path class="cls-34" d="M865.12,439.08c-17.93-4.13-37.06-2.11-55.21,1.79-21.24,4.52-42,11.5-63.63,13.83-5.73.63-11.58.9-17.07,2.77a55,55,0,0,0-12,6.23q-9,5.73-17.54,12.16l-5.8-22.79-2.61-10.25c5.76-5.81,16.63-10.72,21.93-14.38a100.72,100.72,0,0,1,14.42-8.69c6.94-3.19,14.5-4.67,22-6.15q53.24-10.47,106.6-20.89l4.17,21.74Z"/><path class="cls-35" d="M860.4,414.45q-48.85,3.51-97.53,9c-10.44,1.17-21,2.46-30.74,6.43-6.74,2.77-12.9,6.74-19,10.72-6.43,4.13-12.82,8.3-19.25,12.43l-2.61-10.25-3.9-15.35a42.84,42.84,0,0,1,11.57-10.1c6-3.58,12.86-5.61,19.6-7.48,29-8,58.72-13.13,88.37-18.23l47.54-8.18,1.79,9.23Z"/><polygon class="cls-9" points="738.25 399.21 730.98 392.71 757.84 383.48 738.25 399.21"/><polygon class="cls-9" points="705.25 336.04 720.66 331.87 724.66 312.75 705.25 336.04"/><polygon class="cls-9" points="717.83 525.07 734.63 516.06 747.79 504.84 738.48 522.23 717.83 525.07"/><g class="cls-36"><path class="cls-37" d="M489.75,333.59c1.37,2.62,3.5,5.48,5.81,1.79a4.31,4.31,0,0,0-.75-5,4.21,4.21,0,0,0-1.68-1.08,4.27,4.27,0,0,0-2.17-.65c-2.43.46-1.82,4.58-1.82,6.18Z"/><path class="cls-37" d="M289.73,419.34a6.16,6.16,0,0,0-1.06-2.49,15.38,15.38,0,0,0-1.51-2.32,9,9,0,0,0-4.16-2.47c-2.55-.49-3.77,1.48-4.57,3.63a.72.72,0,0,0-.33-.06,2.46,2.46,0,0,0-2.19,2.48c0,1.43,1,2.65,1.72,3.77.41.62.79,1.26,1.24,1.84a1.32,1.32,0,0,0,.79.52,14.31,14.31,0,0,0,1.46,4.79c.89,1.4,2.09,3.22,3.75,2.12s2.61-3.4,3.51-5.12c.65-1.23.86-2.55,1.35-3.67.31-.7.78-1,.68-1.84C290.35,420,289.88,419.82,289.73,419.34Z"/><path class="cls-37" d="M291.59,411.32c-.11.88-1.2,5.45,1.25,5,.8-.16,1.79-1.55,2.09-2.19a2.51,2.51,0,0,0-3.23-3.27c0,.17-.07.34-.11.5Z"/><path class="cls-37" d="M298.35,449.32a83.24,83.24,0,0,0,7.54,4c-.09-.37,1.07-.42,1.37-.57a2.63,2.63,0,0,0,1-.92c.64-1.06.2-2.79-.3-3.76a5.86,5.86,0,0,0-5.46-3,6.1,6.1,0,0,0-3.22.61,3.27,3.27,0,0,0-1.23,1.08,2.63,2.63,0,0,0-.31,1.68c0,1.08.13,2.48,1.15,3.16.3.19,1.2.47,1.56.17s.64-1.47-.25-1.18Z"/><path class="cls-37" d="M310.62,491.75a27.23,27.23,0,0,1,6.95,1.27c-.72.33-.75.89-1.19,1.41a1.94,1.94,0,0,1-1.16.68,2.28,2.28,0,0,1-1.37.33,9.13,9.13,0,0,1-1.57-.6c-.58-.17-.65-.1-1.12-.56a1.3,1.3,0,0,1-.54-1.32c.09-.62.5-2.42,1.54-2.14Z"/><path class="cls-37" d="M359.34,660.33a27.51,27.51,0,0,1-5.78,4.06c.26-.74-.11-1.15-.17-1.83a2,2,0,0,1,.32-1.31c.23-.5.24-.82.73-1.21a10.78,10.78,0,0,1,1.52-.7c.54-.29.54-.39,1.2-.4a1.32,1.32,0,0,1,1.31.53c.38.51,1.38,2.07.45,2.6Z"/><path class="cls-37" d="M452.86,596.83a27.51,27.51,0,0,1-5.78,4.06c.26-.75-.11-1.16-.17-1.84a2,2,0,0,1,.32-1.3c.23-.51.24-.82.73-1.21a8.92,8.92,0,0,1,1.52-.7c.54-.29.54-.4,1.19-.4A1.29,1.29,0,0,1,452,596c.38.5,1.38,2.06.45,2.6Z"/><path class="cls-37" d="M276.87,373.82q.88,5,2.19,10c0-.5,1.14-.63,1.58-1s.94-.67,1.37-1.07a31.19,31.19,0,0,0,2.3-2.3c1.86-2.14.38-4.55-.61-6.6s-2.9-3.91-5.3-3.62c-1.1.14-1.7,1.27-2.14,2.16a4.76,4.76,0,0,0-.63,1.52,13.2,13.2,0,0,0-.3,1.85Z"/><path class="cls-37" d="M488.09,649.37q-4.2-2.89-8.64-5.42c.36.34-.34,1.25-.4,1.82s-.18,1.14-.2,1.73a32,32,0,0,0,0,3.25c.23,2.83,3,3.46,5.14,4.19s4.81.68,6.29-1.24c.67-.88.29-2.1,0-3a4.94,4.94,0,0,0-.66-1.52,11.73,11.73,0,0,0-1.11-1.51Z"/><path class="cls-37" d="M393.17,495.22q-4.8,1.74-9.43,3.9c.49-.11.82,1,1.25,1.37s.82.82,1.29,1.17a28.94,28.94,0,0,0,2.67,1.86c2.43,1.46,4.54-.42,6.39-1.75s3.34-3.54,2.64-5.85c-.33-1.06-1.54-1.45-2.5-1.74a4.84,4.84,0,0,0-1.61-.34,11.8,11.8,0,0,0-1.88,0Z"/><path class="cls-37" d="M373.13,669.08q-4.22-2.9-8.65-5.42c.37.34-.34,1.25-.4,1.82s-.18,1.14-.19,1.73a29.36,29.36,0,0,0,0,3.25c.23,2.83,3,3.46,5.14,4.19s4.82.68,6.29-1.24c.68-.88.29-2.1,0-3a4.92,4.92,0,0,0-.65-1.52,14,14,0,0,0-1.11-1.51Z"/><path class="cls-37" d="M479.73,573.25q.88,5,2.19,10c0-.5,1.13-.63,1.57-1s.95-.67,1.38-1.07c.8-.76,1.58-1.47,2.3-2.3,1.86-2.15.38-4.55-.61-6.6s-2.9-3.91-5.31-3.62c-1.09.13-1.69,1.27-2.14,2.16a4.88,4.88,0,0,0-.62,1.52,13.2,13.2,0,0,0-.3,1.85Z"/><path class="cls-37" d="M361.9,550c-2.46-1.59-7.07-1.45-9.35.59-1.82,1.63-1.08,3.46.26,4.94.06.15.08.31.15.45a2.42,2.42,0,0,0,1,1.1,3.71,3.71,0,0,0,.9.83c1.46.89,2.88.58,4.39-.12s3.47-1.92,4.14-3.46A3.43,3.43,0,0,0,361.9,550Z"/><path class="cls-37" d="M246.13,370c.09,1.58.84,4,3,3.4,1-.26.74-1.24.42-1.94-.22-.49-.16-.52-.69-.78a6.44,6.44,0,0,0-.9-.39c-.81-.2-1.54.57-1.86,1.24Z"/><path class="cls-37" d="M344.08,506.17a3.17,3.17,0,0,0-.27,1.54c.56.34.78.93,1.57,1a2.49,2.49,0,0,0,2-1.27c.32-.79-.5-1.4-1.06-1.81-.73-.52-1.33-.95-2.21-.26a2.63,2.63,0,0,0-1,2.38Z"/><path class="cls-37" d="M460.51,596.7a3.2,3.2,0,0,0-.91-1.26c-.64.15-1.21-.1-1.79.44a2.46,2.46,0,0,0-.51,2.34c.34.78,1.35.63,2,.51.89-.16,1.61-.28,1.74-1.39a2.63,2.63,0,0,0-1-2.37Z"/><path class="cls-37" d="M473.42,618.15a3.07,3.07,0,0,0-.91-1.27c-.64.16-1.21-.09-1.78.44a2.48,2.48,0,0,0-.52,2.34c.34.78,1.35.63,2,.51.89-.15,1.61-.28,1.74-1.39a2.58,2.58,0,0,0-1-2.36Z"/><path class="cls-37" d="M382.09,470a3.17,3.17,0,0,0-1.56,0c-.24.61-.78.93-.67,1.71a2.46,2.46,0,0,0,1.6,1.78c.84.17,1.3-.74,1.6-1.36.39-.81.7-1.48-.13-2.22a2.6,2.6,0,0,0-2.51-.55Z"/><path class="cls-37" d="M316.47,459.76a6,6,0,0,0-1.67-2.61q-.35-.31-.72-.6a1,1,0,0,0-.08-.11,6.17,6.17,0,0,0-2.27-2.09,6.08,6.08,0,0,0-3-1,6.23,6.23,0,0,0-3.23.14,8.2,8.2,0,0,0-4.84,3.73l-.81,1.93a8.08,8.08,0,0,0,0,4.31l.42,2.45a8.1,8.1,0,0,0,13.54,3.57l1-.92a7.81,7.81,0,0,0,1.67-8.84Z"/><path class="cls-37" d="M405,482.17a6,6,0,0,0,2.27-2.11,8,8,0,0,0,.46-.81l.1-.1a6.09,6.09,0,0,0,1.66-2.6,6,6,0,0,0,.42-3.13,6.16,6.16,0,0,0-.71-3.16,8.12,8.12,0,0,0-4.51-4.11l-2-.47a8.14,8.14,0,0,0-4.24.75l-2.34.85a8.1,8.1,0,0,0-1.16,14l1.08.83a7.84,7.84,0,0,0,9,.11Z"/><path class="cls-37" d="M321.47,469.7a.87.87,0,0,0-.37-.49,1,1,0,0,0-.63-.08,3.73,3.73,0,0,0-2.74,2.21.75.75,0,0,0-.3.18.83.83,0,0,0,0,1.15c.07.09,0,0,0,0l.06.08a.25.25,0,0,0,0,.07l0,.16V473a.83.83,0,0,0,.81.81A3.34,3.34,0,0,0,321.47,469.7Z"/><path class="cls-37" d="M331.34,410.21a.87.87,0,0,0-.37-.49,1,1,0,0,0-.63-.08,3.73,3.73,0,0,0-2.74,2.21.67.67,0,0,0-.3.19.81.81,0,0,0,0,1.14c.07.09,0,0,0,0l.06.08,0,.07,0,.16v.09a.83.83,0,0,0,.81.81A3.34,3.34,0,0,0,331.34,410.21Z"/><path class="cls-37" d="M414,239.28a.85.85,0,0,0-.37-.48.92.92,0,0,0-.63-.08,3.73,3.73,0,0,0-2.75,2.21.71.71,0,0,0-.3.18.85.85,0,0,0,0,1.15c.08.08,0,0,0,0a.47.47,0,0,0,.06.09l0,.07s0,.1.05.15v.09a.82.82,0,0,0,.81.81A3.34,3.34,0,0,0,414,239.28Z"/><path class="cls-37" d="M552.31,278.49a.85.85,0,0,0-.37-.48,1,1,0,0,0-.63-.09,3.76,3.76,0,0,0-2.75,2.22.62.62,0,0,0-.3.18.83.83,0,0,0,0,1.14c.08.09,0,0,0,0l.06.08a.16.16,0,0,0,0,.07.75.75,0,0,0,0,.16v.09a.83.83,0,0,0,.81.81A3.34,3.34,0,0,0,552.31,278.49Z"/><path class="cls-37" d="M453.74,278.49a.81.81,0,0,0-.37-.48,1,1,0,0,0-.63-.09,3.75,3.75,0,0,0-2.74,2.22.58.58,0,0,0-.3.18.81.81,0,0,0,0,1.14c.07.09,0,0,0,0l.06.08a.16.16,0,0,0,0,.07c0,.06,0,.11,0,.16v.09a.83.83,0,0,0,.81.81A3.34,3.34,0,0,0,453.74,278.49Z"/><path class="cls-37" d="M321.55,477.7a.89.89,0,0,0-.47-.67,1.67,1.67,0,0,0-.44-.17,2.17,2.17,0,0,0-.95,0,2,2,0,0,0-.66.24.82.82,0,0,0-.32-.19.84.84,0,0,0-1,.57.89.89,0,0,0,.09.62,2.88,2.88,0,0,0,2.62,1.58,1.05,1.05,0,0,0,.78-.25,1.57,1.57,0,0,0,.32-.63A2.46,2.46,0,0,0,321.55,477.7Z"/><path class="cls-37" d="M324.12,446c-.81-1.49-2-3.7-4-3.61s-3.17,1.73-3.79,3.34a7.79,7.79,0,0,0-.19,4.75,8.33,8.33,0,0,0,.43,1.18,4.61,4.61,0,0,0,1.62,3.3,4.53,4.53,0,0,0,4.84.52,4.72,4.72,0,0,0,2.55-4.15A10.37,10.37,0,0,0,324.12,446Z"/><path class="cls-37" d="M531.77,310.83c-.81-1.49-2-3.71-4-3.61s-3.17,1.73-3.79,3.34a7.79,7.79,0,0,0-.19,4.75,8.33,8.33,0,0,0,.43,1.18,4.61,4.61,0,0,0,1.62,3.3,4.53,4.53,0,0,0,4.84.52,4.72,4.72,0,0,0,2.55-4.15A10.37,10.37,0,0,0,531.77,310.83Z"/><path class="cls-37" d="M276.35,404.61v0h0s0,0,0,0Z"/><path class="cls-37" d="M279.32,407.06a4.33,4.33,0,0,0-1.42-2,1.67,1.67,0,0,0-.17-1.37,2.35,2.35,0,0,0-2.17-1.09,2.66,2.66,0,0,0-2.09,1.57,4.9,4.9,0,0,0,.62,5.08,3.17,3.17,0,0,0,4.46.41A2.49,2.49,0,0,0,279.32,407.06Zm104.24-11.14a4.33,4.33,0,0,0-1.42-2,1.67,1.67,0,0,0-.17-1.37,2.37,2.37,0,0,0-2.17-1.09,2.67,2.67,0,0,0-2.09,1.57,4.9,4.9,0,0,0,.63,5.08,3.16,3.16,0,0,0,4.45.41A2.48,2.48,0,0,0,383.56,395.92Zm-108.9,10s0-.26,0-.22,0-.05,0-.05,0-.14.05-.21a2.06,2.06,0,0,1,.15-.48l.08-.17.06-.1s.12-.18.08-.11l.11-.13s.21-.16.11-.1l.19-.11h0l.14,0c-.16,0,0,0,.09,0h.1l.2.06c-.15-.05.07.05.12.07h0l.05.05.05.06a.41.41,0,0,1,.05.09h0s0,0,0-.05a.19.19,0,0,1,0,.07h0s0,0,0,0,0,0,0,0l-.09.06a.85.85,0,0,0-.19.35l-.21.19,0,0a.75.75,0,0,0-.28.25,2.94,2.94,0,0,0-.63.73,2,2,0,0,0-.21.63l0-.17s0-.16,0-.19A4.86,4.86,0,0,1,274.66,406Z"/><path class="cls-37" d="M315.67,480.39a1.73,1.73,0,0,0-.77-.79,2.09,2.09,0,0,0-.73-.2,1.87,1.87,0,0,0-.58,0,2.24,2.24,0,0,0-1.09.59,1.9,1.9,0,0,0-.5,1,.89.89,0,0,0-.08.33,1.83,1.83,0,0,0,.34,1.12,2.51,2.51,0,0,0,.54.54,2.69,2.69,0,0,0,.53.28,2,2,0,0,0,1.18.06,1.94,1.94,0,0,0,1-.76,2.16,2.16,0,0,0,.12-2.16Z"/><path class="cls-37" d="M314.61,506.28a.81.81,0,0,0,0,1.62A.81.81,0,0,0,314.61,506.28Z"/><path class="cls-37" d="M490.88,455.94a54.21,54.21,0,0,0-4.17-9.34c-1.32-2.35-2.82-5.52-5.75-6.07a7.16,7.16,0,0,0-6.62,2.64c-1.9,2.34-2.36,5.44-2.53,8.39-.32.87-.6,1.75-.85,2.63-.8,2.94-.58,5.95,1.53,8.28a8.4,8.4,0,0,0,.8.78c0,.07,0,.13.08.19a.67.67,0,0,0,.65.37,10.07,10.07,0,0,0,2.13,1.12,3.57,3.57,0,0,0,1.88.56h.1a11.88,11.88,0,0,0,2,.22,19,19,0,0,0,5-.62,13.74,13.74,0,0,0,4.23-1.57C492.07,461.74,491.81,458.7,490.88,455.94Zm-1.43,5.3a3.44,3.44,0,0,1-1.07.94l.05-.08a.49.49,0,0,0,.19-.21c0-.05,0-.1.07-.16a5.67,5.67,0,0,0,.81-2.6,10,10,0,0,0,.14-1.73C490,458.65,490.24,460.11,489.45,461.24Z"/><path class="cls-37" d="M523,629.39a55.49,55.49,0,0,0,9.58,3.58c2.61.7,5.92,1.86,8.37.15a7.14,7.14,0,0,0,2.75-6.57c-.34-3-2.22-5.5-4.2-7.69-.41-.83-.83-1.65-1.29-2.44-1.53-2.64-3.83-4.59-7-4.72a8.38,8.38,0,0,0-1.12,0l-.19-.07a.68.68,0,0,0-.72.2,9.65,9.65,0,0,0-2.28.74,3.6,3.6,0,0,0-1.72.94l-.07.08a13.23,13.23,0,0,0-1.54,1.26,18.85,18.85,0,0,0-3.05,4,13.84,13.84,0,0,0-1.85,4.11C518,626.18,520.38,628.12,523,629.39Zm-2.78-4.73a3.46,3.46,0,0,1,.09-1.43s0,.07,0,.1a.54.54,0,0,0,0,.28l.06.16a5.8,5.8,0,0,0,1.29,2.4,10.92,10.92,0,0,0,1.14,1.31C521.69,626.86,520.47,626,520.22,624.66Z"/><path class="cls-37" d="M419.51,457.55a53.92,53.92,0,0,0,8.48-5.73c2.08-1.71,4.94-3.74,5-6.73a7.14,7.14,0,0,0-3.76-6c-2.63-1.46-5.76-1.37-8.69-1-.92-.15-1.83-.28-2.74-.37-3-.28-6,.46-7.89,2.95a8,8,0,0,0-.63.93l-.18.11a.66.66,0,0,0-.24.7,9.7,9.7,0,0,0-.73,2.29,3.6,3.6,0,0,0-.23,1.95l0,.1a11.91,11.91,0,0,0,.13,2,18.68,18.68,0,0,0,1.48,4.8,13.77,13.77,0,0,0,2.28,3.9C414,459.74,417,459,419.51,457.55Zm-5.46-.47a3.58,3.58,0,0,1-1.11-.9l.09,0a.54.54,0,0,0,.23.15l.17,0a5.61,5.61,0,0,0,2.7.34,10,10,0,0,0,1.73-.16C416.69,457.15,415.3,457.66,414.05,457.08Z"/><path class="cls-37" d="M376,557.68c-.28-.48-.58-1-.89-1.42a18.5,18.5,0,0,0-2-2.66,4.78,4.78,0,0,0-1.26-1,.89.89,0,0,0-.54-.19,2.17,2.17,0,0,0-.88-.1,2.62,2.62,0,0,0-2.18,1.74,2.26,2.26,0,0,0,0,1.66h0a.82.82,0,0,0,.29,1.11l.06,0a2.57,2.57,0,0,0,.13,1.22,3.57,3.57,0,0,0,2.1,2,8.27,8.27,0,0,0,3.09.43,2.29,2.29,0,0,0,2.35-1.24A2.05,2.05,0,0,0,376,557.68Z"/><path class="cls-37" d="M546.08,626.31c.54.14,1.09.25,1.64.36a19.13,19.13,0,0,0,3.29.44,4.94,4.94,0,0,0,1.57-.23.88.88,0,0,0,.52-.25,2.18,2.18,0,0,0,.69-.56,2.6,2.6,0,0,0,.28-2.78,2.19,2.19,0,0,0-1.21-1.13h0a.82.82,0,0,0-1-.57l-.07,0a2.47,2.47,0,0,0-1-.77,3.61,3.61,0,0,0-2.93.06,8.33,8.33,0,0,0-2.47,1.91,2.26,2.26,0,0,0-.76,2.54A2,2,0,0,0,546.08,626.31Z"/><path class="cls-37" d="M459.55,275c-.27-.49-.57-1-.88-1.42a19.26,19.26,0,0,0-2-2.66,4.62,4.62,0,0,0-1.27-1,.87.87,0,0,0-.53-.2,2.42,2.42,0,0,0-.89-.1,2.62,2.62,0,0,0-2.18,1.75,2.26,2.26,0,0,0,.05,1.66h0a.83.83,0,0,0,.29,1.11l.06,0a2.6,2.6,0,0,0,.13,1.23,3.6,3.6,0,0,0,2.1,2.05,8.56,8.56,0,0,0,3.1.43,2.28,2.28,0,0,0,2.35-1.25A2,2,0,0,0,459.55,275Z"/><path class="cls-37" d="M449.59,223.29c-.27-.48-.57-.95-.88-1.42a19.17,19.17,0,0,0-2-2.65,4.62,4.62,0,0,0-1.27-1,.87.87,0,0,0-.53-.2,2.42,2.42,0,0,0-.89-.1,2.62,2.62,0,0,0-2.18,1.75,2.23,2.23,0,0,0,.05,1.65h0a.83.83,0,0,0,.29,1.11l.06,0a2.61,2.61,0,0,0,.13,1.23,3.61,3.61,0,0,0,2.1,2,8.35,8.35,0,0,0,3.1.43,2.27,2.27,0,0,0,2.35-1.24A2,2,0,0,0,449.59,223.29Z"/><path class="cls-37" d="M390.52,563.23a4.34,4.34,0,0,0-3-3,2.32,2.32,0,0,0-1.28.15.75.75,0,0,0-1.1.25,5.44,5.44,0,0,0-4.51,3.76c-.87,2.8.69,5.29,2.89,6.92a5.85,5.85,0,0,0,3.77,1.41,3.47,3.47,0,0,0,2.86-2.08,9.9,9.9,0,0,0,.77-3.44A9.64,9.64,0,0,0,390.52,563.23Z"/><path class="cls-37" d="M410.42,645.53a4.35,4.35,0,0,0,4.28,0,2.31,2.31,0,0,0,.79-1,.76.76,0,0,0,.59-1,5.46,5.46,0,0,0,.48-5.85c-1.4-2.59-4.26-3.22-7-2.79a5.89,5.89,0,0,0-3.66,1.69,3.48,3.48,0,0,0-.51,3.5,9.93,9.93,0,0,0,1.91,3A9.67,9.67,0,0,0,410.42,645.53Z"/><path class="cls-37" d="M447.6,655.46a4.38,4.38,0,0,0,4.28,0,2.37,2.37,0,0,0,.78-1,.75.75,0,0,0,.6-1,5.43,5.43,0,0,0,.47-5.85c-1.39-2.59-4.25-3.22-7-2.79a5.92,5.92,0,0,0-3.65,1.69,3.51,3.51,0,0,0-.52,3.5,9.84,9.84,0,0,0,1.92,3A9.67,9.67,0,0,0,447.6,655.46Z"/><path class="cls-37" d="M424.25,203.14a4.34,4.34,0,0,0-3-3,2.32,2.32,0,0,0-1.28.15.75.75,0,0,0-1.1.25,5.44,5.44,0,0,0-4.51,3.76c-.87,2.81.69,5.29,2.89,6.92a5.92,5.92,0,0,0,3.77,1.42,3.5,3.5,0,0,0,2.86-2.09,11.9,11.9,0,0,0,.39-7.39Z"/><path class="cls-37" d="M365,649.24a4.31,4.31,0,0,0,4.27,0,2.43,2.43,0,0,0,.79-1,.75.75,0,0,0,.59-1,5.42,5.42,0,0,0,.48-5.85c-1.39-2.58-4.26-3.21-7-2.79a5.85,5.85,0,0,0-3.65,1.7,3.46,3.46,0,0,0-.52,3.5,9.61,9.61,0,0,0,1.92,3A9.44,9.44,0,0,0,365,649.24Z"/><path class="cls-37" d="M424.81,588.35a4.35,4.35,0,0,0,4.28,0,2.49,2.49,0,0,0,.78-1,.76.76,0,0,0,.6-1,5.43,5.43,0,0,0,.47-5.85c-1.39-2.58-4.25-3.22-7-2.79a5.88,5.88,0,0,0-3.65,1.7,3.49,3.49,0,0,0-.52,3.49,9.84,9.84,0,0,0,1.92,3A9.54,9.54,0,0,0,424.81,588.35Z"/><path class="cls-37" d="M248.54,357.19a8.84,8.84,0,0,0-1.89-4.3l-.23-.27c0-.1-.08-.2-.13-.3a.71.71,0,0,0-.52-.39,5.62,5.62,0,0,0-2.51-1.44.71.71,0,0,0-.55-.59,6,6,0,0,0-6.71,3.89,6.87,6.87,0,0,0,2.71,7.7,7.87,7.87,0,0,0,4.26,1.32,7.55,7.55,0,0,0,3.68-.81.79.79,0,0,0,.48.18.83.83,0,0,0,.81-.81c0-.17,0-.35,0-.52A5.59,5.59,0,0,0,248.54,357.19Zm-3.48-3.67a6.27,6.27,0,0,1,.51,1.68,4.15,4.15,0,0,0-.11.48c-.21-.36-.4-.73-.63-1.08a.78.78,0,0,0-.55-.37,9.49,9.49,0,0,0-.73-1.92A5,5,0,0,1,245.06,353.52Zm64.82-44.66a6.68,6.68,0,0,1,.52,1.68,2.81,2.81,0,0,0-.12.48c-.21-.36-.39-.73-.63-1.08a.81.81,0,0,0-.54-.37,10.16,10.16,0,0,0-.74-1.92A5,5,0,0,1,309.88,308.86Z"/><path class="cls-37" d="M838.84,427.2q.88,5,2.19,10c0-.5,1.13-.63,1.57-1s.95-.67,1.38-1.07a29.36,29.36,0,0,0,2.3-2.3c1.86-2.14.38-4.55-.61-6.6s-2.9-3.91-5.31-3.62c-1.09.14-1.69,1.27-2.14,2.16a4.93,4.93,0,0,0-.62,1.53,12.74,12.74,0,0,0-.3,1.85Z"/><path class="cls-37" d="M832.06,430.47a3.17,3.17,0,0,0-.27,1.54c.56.35.78.93,1.57,1a2.48,2.48,0,0,0,2-1.27c.32-.79-.5-1.4-1.06-1.81-.73-.52-1.33-.95-2.21-.26a2.61,2.61,0,0,0-1,2.38Z"/><path class="cls-37" d="M848.07,410.09a6.07,6.07,0,0,0-1.67-2.61c-.23-.21-.47-.4-.72-.59l-.08-.12a6.06,6.06,0,0,0-2.27-2.08,6,6,0,0,0-3-1,6.12,6.12,0,0,0-3.23.15,8.19,8.19,0,0,0-4.84,3.72c-.28.65-.55,1.29-.82,1.94a8,8,0,0,0,0,4.3c.14.82.28,1.64.43,2.45a8.09,8.09,0,0,0,5.65,5.66,8.29,8.29,0,0,0,4.31,0,8.17,8.17,0,0,0,3.57-2.08l1-.92a6,6,0,0,0,1.67-2.61,7.3,7.3,0,0,0,0-6.24Z"/><path class="cls-37" d="M838.85,391.1a54.6,54.6,0,0,0-4.16-9.34c-1.33-2.36-2.82-5.53-5.76-6.08a7.18,7.18,0,0,0-6.62,2.64c-1.9,2.35-2.35,5.44-2.53,8.39-.31.87-.6,1.75-.84,2.63-.81,3-.59,6,1.52,8.29.26.28.53.53.81.78,0,.06.05.12.08.19a.67.67,0,0,0,.65.36,10,10,0,0,0,2.12,1.12,3.6,3.6,0,0,0,1.88.56h.1a13.31,13.31,0,0,0,2,.21,18.3,18.3,0,0,0,5-.62,13.58,13.58,0,0,0,4.23-1.57C840,396.89,839.78,393.85,838.85,391.1Zm-1.42,5.29a3.48,3.48,0,0,1-1.08.94.22.22,0,0,0,0-.08.55.55,0,0,0,.2-.2l.06-.16a5.63,5.63,0,0,0,.81-2.6,10.21,10.21,0,0,0,.14-1.74C838,393.8,838.22,395.26,837.43,396.39Z"/><path class="cls-37" d="M763.91,451.43a9,9,0,0,0-1.89-4.3l-.23-.27c0-.1-.08-.21-.13-.3a.71.71,0,0,0-.52-.39,5.62,5.62,0,0,0-2.52-1.44.7.7,0,0,0-.55-.59,6,6,0,0,0-6.71,3.88,6.9,6.9,0,0,0,2.71,7.71,8,8,0,0,0,4.27,1.32,7.63,7.63,0,0,0,3.67-.81.89.89,0,0,0,.48.18.83.83,0,0,0,.81-.81c0-.17,0-.35,0-.52A5.6,5.6,0,0,0,763.91,451.43Zm-3.48-3.67a6.53,6.53,0,0,1,.51,1.68,3.74,3.74,0,0,0-.12.48c-.21-.36-.39-.73-.62-1.08a.79.79,0,0,0-.55-.37,9.61,9.61,0,0,0-.74-1.93A5.41,5.41,0,0,1,760.43,447.76Zm64.82-44.66a6.53,6.53,0,0,1,.51,1.68,4.21,4.21,0,0,0-.12.48c-.21-.36-.39-.73-.62-1.08a.82.82,0,0,0-.55-.37,9.85,9.85,0,0,0-.74-1.93A5.28,5.28,0,0,1,825.25,403.1Z"/><path class="cls-37" d="M338.27,476l-.12-.16a.62.62,0,0,0-.26-.17.8.8,0,0,0-.53,0l-.19,0a3.23,3.23,0,0,1-.44,0,2.77,2.77,0,0,1-.41-.12,2.44,2.44,0,0,1-.41-.24.88.88,0,0,0-.53-.21.84.84,0,0,0-.58.24.92.92,0,0,0-.22.55.81.81,0,0,0,0,1.1l1.78,1.74a.85.85,0,0,0,1,.13,2.22,2.22,0,0,0,1-1.24,2,2,0,0,0,.11-.73A2.16,2.16,0,0,0,338.27,476Z"/><path class="cls-37" d="M124.41,534.89a6.36,6.36,0,0,0-1.06-2.49,16,16,0,0,0-1.52-2.32,8.88,8.88,0,0,0-4.16-2.46c-2.54-.5-3.76,1.47-4.56,3.63a.62.62,0,0,0-.33-.07,2.46,2.46,0,0,0-2.19,2.49c0,1.42,1,2.64,1.72,3.77.41.61.79,1.25,1.24,1.84a1.42,1.42,0,0,0,.79.52,14.26,14.26,0,0,0,1.46,4.78c.88,1.41,2.09,3.23,3.75,2.12s2.61-3.4,3.51-5.12c.64-1.22.86-2.55,1.35-3.67.31-.7.78-1,.68-1.84C125,535.56,124.55,535.38,124.41,534.89Z"/><path class="cls-37" d="M126.27,526.88c-.12.88-1.2,5.45,1.25,5,.79-.16,1.79-1.54,2.09-2.19a2.52,2.52,0,0,0-3.24-3.27c0,.17-.07.34-.1.51Z"/><path class="cls-37" d="M133,564.88c2.45,1.44,5,2.76,7.54,4-.09-.38,1.08-.42,1.37-.58a2.64,2.64,0,0,0,1-.91c.64-1.06.2-2.8-.31-3.77a5.83,5.83,0,0,0-5.45-3,6.07,6.07,0,0,0-3.23.62,3.16,3.16,0,0,0-1.23,1.07,2.73,2.73,0,0,0-.3,1.69c0,1.08.12,2.47,1.14,3.15.3.2,1.21.47,1.57.17s.64-1.47-.26-1.17Z"/><path class="cls-37" d="M145.3,607.3a27.51,27.51,0,0,1,6.94,1.27c-.71.34-.74.89-1.18,1.41s-.61.48-1.16.69a2.38,2.38,0,0,1-1.38.32,8.53,8.53,0,0,1-1.56-.59c-.59-.18-.66-.1-1.12-.57a1.32,1.32,0,0,1-.55-1.31c.1-.63.51-2.43,1.55-2.14Z"/><path class="cls-37" d="M94,606.93a27.59,27.59,0,0,1,6.94,1.27c-.71.34-.74.89-1.19,1.41s-.61.48-1.16.69a2.33,2.33,0,0,1-1.37.32,8.71,8.71,0,0,1-1.56-.59c-.59-.18-.66-.11-1.13-.57a1.33,1.33,0,0,1-.54-1.31c.09-.63.5-2.43,1.54-2.14Z"/><path class="cls-37" d="M151.15,575.31a6.19,6.19,0,0,0-1.68-2.61c-.22-.21-.47-.4-.71-.6,0,0,0-.07-.08-.11a6.2,6.2,0,0,0-2.28-2.09,6,6,0,0,0-3-1,6.12,6.12,0,0,0-3.23.15,8.19,8.19,0,0,0-4.84,3.72c-.27.65-.54,1.29-.82,1.94a8.25,8.25,0,0,0,0,4.3c.15.82.29,1.63.43,2.45a8.13,8.13,0,0,0,5.66,5.66,8.25,8.25,0,0,0,4.3,0,8.07,8.07,0,0,0,3.58-2.09l1-.91a7.81,7.81,0,0,0,1.68-8.85Z"/><path class="cls-37" d="M156.15,585.25a.85.85,0,0,0-.37-.48.92.92,0,0,0-.63-.08,3.73,3.73,0,0,0-2.75,2.21.71.71,0,0,0-.3.18.83.83,0,0,0,0,1.14c.08.09,0,0,0,0a.24.24,0,0,0,.06.08l0,.08s0,.1.05.15v.09a.82.82,0,0,0,.81.81A3.34,3.34,0,0,0,156.15,585.25Z"/><path class="cls-37" d="M156.22,593.26a.88.88,0,0,0-.46-.68,2.06,2.06,0,0,0-1.39-.19,2.08,2.08,0,0,0-.66.24,1,1,0,0,0-.32-.18.81.81,0,0,0-.63.08.84.84,0,0,0-.37.48.92.92,0,0,0,.08.63,2.93,2.93,0,0,0,2.63,1.58,1.1,1.1,0,0,0,.78-.26,1.44,1.44,0,0,0,.31-.63A2.28,2.28,0,0,0,156.22,593.26Z"/><path class="cls-37" d="M158.79,561.54c-.8-1.48-2-3.7-4-3.61s-3.16,1.74-3.78,3.34a7.64,7.64,0,0,0-.19,4.75,7.25,7.25,0,0,0,.43,1.18,4.61,4.61,0,0,0,1.62,3.3,4.53,4.53,0,0,0,4.84.52,4.72,4.72,0,0,0,2.55-4.14A10.32,10.32,0,0,0,158.79,561.54Z"/><path class="cls-37" d="M150.35,595.94a1.76,1.76,0,0,0-.77-.78,1.91,1.91,0,0,0-.73-.21,2.24,2.24,0,0,0-.58,0,2.12,2.12,0,0,0-1.1.59,1.85,1.85,0,0,0-.49.95.73.73,0,0,0-.08.33,1.79,1.79,0,0,0,.34,1.12,2.31,2.31,0,0,0,.54.54,1.8,1.8,0,0,0,.53.28,1.87,1.87,0,0,0,1.17.06,1.84,1.84,0,0,0,1-.75,2,2,0,0,0,.35-1.07A2.09,2.09,0,0,0,150.35,595.94Z"/><path class="cls-37" d="M169.52,642.92a1.83,1.83,0,0,0-.13-.16.56.56,0,0,0-.26-.17.78.78,0,0,0-.52,0l-.19,0H168l-.4-.11a2.86,2.86,0,0,1-.42-.24.78.78,0,0,0-.53-.21.83.83,0,0,0-.57.23,1,1,0,0,0-.23.56.82.82,0,0,0,0,1.09l1.78,1.74a.82.82,0,0,0,1,.13,2.16,2.16,0,0,0,1-1.24,2,2,0,0,0,.11-.72A2.34,2.34,0,0,0,169.52,642.92Z"/><path class="cls-37" d="M180.57,681.32a27.59,27.59,0,0,1,6.94,1.27c-.71.34-.74.89-1.19,1.41s-.61.48-1.16.69a2.33,2.33,0,0,1-1.37.32,8.26,8.26,0,0,1-1.56-.59c-.59-.18-.66-.1-1.12-.57a1.32,1.32,0,0,1-.55-1.31c.09-.63.51-2.43,1.54-2.14Z"/><path class="cls-37" d="M191.41,659.27a.78.78,0,0,0-.37-.48.88.88,0,0,0-.62-.08,3.73,3.73,0,0,0-2.75,2.21.71.71,0,0,0-.3.18.82.82,0,0,0,0,1.14c.07.09,0,0,0,0s0,.06,0,.09a.16.16,0,0,1,0,.07s0,.1,0,.15a.28.28,0,0,1,0,.09.82.82,0,0,0,.81.81A3.33,3.33,0,0,0,191.41,659.27Z"/><path class="cls-37" d="M191.49,667.28a.88.88,0,0,0-.46-.68,2.35,2.35,0,0,0-.44-.17,2.39,2.39,0,0,0-1,0,2,2,0,0,0-.66.25.76.76,0,0,0-.32-.19.79.79,0,0,0-.62.08.8.8,0,0,0-.37.48.92.92,0,0,0,.08.63,2.91,2.91,0,0,0,2.62,1.58,1.09,1.09,0,0,0,.78-.26,1.35,1.35,0,0,0,.32-.63A2.28,2.28,0,0,0,191.49,667.28Z"/><path class="cls-37" d="M185.61,670a1.69,1.69,0,0,0-.76-.78,1.91,1.91,0,0,0-.74-.21,2.27,2.27,0,0,0-.58,0,2.13,2.13,0,0,0-1.09.59,2,2,0,0,0-.5.95,1.14,1.14,0,0,0-.08.33,1.85,1.85,0,0,0,.34,1.12,2.56,2.56,0,0,0,.55.54,1.88,1.88,0,0,0,.52.28,1.91,1.91,0,0,0,1.18.06,1.84,1.84,0,0,0,1-.75,2.13,2.13,0,0,0,.35-1.07A2.2,2.2,0,0,0,185.61,670Z"/><path class="cls-37" d="M208.22,665.56l-.13-.17a.65.65,0,0,0-.26-.17.8.8,0,0,0-.53,0l-.18,0a2.26,2.26,0,0,1-.45,0,2.62,2.62,0,0,1-.4-.11,2.86,2.86,0,0,1-.42-.24.78.78,0,0,0-.53-.21.84.84,0,0,0-.57.23.88.88,0,0,0-.23.56.8.8,0,0,0,0,1.09l1.78,1.75a.83.83,0,0,0,1,.12,2.13,2.13,0,0,0,1-1.24,1.94,1.94,0,0,0,.11-.72A2.25,2.25,0,0,0,208.22,665.56Z"/><path class="cls-37" d="M413.6,651.82l.21,0a.55.55,0,0,0,.3-.07.78.78,0,0,0,.4-.34.86.86,0,0,1,.1-.16,2.34,2.34,0,0,1,.31-.32,2.71,2.71,0,0,1,.37-.21,3.47,3.47,0,0,1,.46-.13.78.78,0,0,0,.52-.23.81.81,0,0,0,.23-.57.94.94,0,0,0-.23-.55.82.82,0,0,0-.81-.75l-2.48,0a.83.83,0,0,0-.78.61,2.15,2.15,0,0,0,.17,1.59,2,2,0,0,0,.44.59A2.27,2.27,0,0,0,413.6,651.82Z"/><path class="cls-37" d="M482.51,628.51l.21,0a.6.6,0,0,0,.3-.07.8.8,0,0,0,.4-.35l.1-.16a2.34,2.34,0,0,1,.32-.31,1.65,1.65,0,0,1,.36-.22,2.39,2.39,0,0,1,.46-.12.83.83,0,0,0,.52-.23.84.84,0,0,0,.24-.58.89.89,0,0,0-.24-.55.81.81,0,0,0-.8-.74l-2.49,0a.84.84,0,0,0-.78.62,2.15,2.15,0,0,0,.17,1.59,1.94,1.94,0,0,0,.44.58A2.13,2.13,0,0,0,482.51,628.51Z"/><path class="cls-37" d="M367.13,565.9a2.64,2.64,0,0,0-2.8,0,.81.81,0,0,0-.4.7h0a.64.64,0,0,0-.16.11.82.82,0,0,0,0,1.15l.85.89a.81.81,0,0,0,1.15,0,.72.72,0,0,0,.2-.36.58.58,0,0,0,0-.14.79.79,0,0,0,.36-.19l.93-.86a.79.79,0,0,0,.23-.68A.81.81,0,0,0,367.13,565.9Z"/><path class="cls-37" d="M790.42,648.69a27.51,27.51,0,0,1-5.78,4.06c.26-.74-.11-1.15-.17-1.84a2,2,0,0,1,.32-1.3c.23-.5.24-.82.73-1.21a9.76,9.76,0,0,1,1.52-.7c.54-.29.54-.39,1.2-.4s.92,0,1.31.53,1.38,2.06.45,2.6Z"/><path class="cls-37" d="M804.21,657.44q-4.22-2.9-8.65-5.42c.37.34-.34,1.25-.4,1.82S795,655,795,655.57a29.36,29.36,0,0,0,0,3.25c.23,2.83,3,3.46,5.14,4.19s4.82.67,6.29-1.25c.68-.87.29-2.09,0-3a4.82,4.82,0,0,0-.65-1.52,14,14,0,0,0-1.11-1.51Z"/><path class="cls-37" d="M793,538.35c-2.46-1.59-7.07-1.45-9.35.59-1.82,1.63-1.08,3.46.26,4.93.06.16.08.32.15.46a2.4,2.4,0,0,0,1,1.09,3.56,3.56,0,0,0,.9.84c1.46.88,2.88.57,4.39-.12s3.47-1.92,4.14-3.46A3.43,3.43,0,0,0,793,538.35Z"/><path class="cls-37" d="M807.06,546c-.28-.49-.58-1-.89-1.42a18.5,18.5,0,0,0-2-2.66,4.58,4.58,0,0,0-1.26-1,.9.9,0,0,0-.54-.2,2.36,2.36,0,0,0-.88-.1,2.63,2.63,0,0,0-2.18,1.75,2.26,2.26,0,0,0,0,1.66h0a.81.81,0,0,0,.29,1.11l.06,0a2.48,2.48,0,0,0,.13,1.23,3.57,3.57,0,0,0,2.1,2A8.48,8.48,0,0,0,805,549a2.29,2.29,0,0,0,2.35-1.24A2.05,2.05,0,0,0,807.06,546Z"/><path class="cls-37" d="M821.6,551.59a4.35,4.35,0,0,0-3-3,2.52,2.52,0,0,0-1.28.15.75.75,0,0,0-1.1.26,5.43,5.43,0,0,0-4.51,3.75c-.87,2.81.69,5.3,2.89,6.93a5.85,5.85,0,0,0,3.77,1.41,3.49,3.49,0,0,0,2.86-2.08,10,10,0,0,0,.77-3.45A9.59,9.59,0,0,0,821.6,551.59Z"/><path class="cls-37" d="M841.5,633.89a4.35,4.35,0,0,0,4.28,0,2.43,2.43,0,0,0,.79-1,.76.76,0,0,0,.59-1,5.44,5.44,0,0,0,.48-5.84c-1.4-2.59-4.26-3.22-7-2.8a5.9,5.9,0,0,0-3.66,1.7,3.48,3.48,0,0,0-.51,3.5,12,12,0,0,0,5,5.47Z"/><path class="cls-37" d="M796,637.6a4.33,4.33,0,0,0,4.27,0,2.43,2.43,0,0,0,.79-1,.75.75,0,0,0,.59-1,5.42,5.42,0,0,0,.48-5.85c-1.39-2.58-4.26-3.22-7-2.79a5.85,5.85,0,0,0-3.65,1.7,3.44,3.44,0,0,0-.52,3.49,9.65,9.65,0,0,0,1.92,3A9.44,9.44,0,0,0,796,637.6Z"/><path class="cls-37" d="M855.89,576.71a4.36,4.36,0,0,0,4.27,0,2.4,2.4,0,0,0,.79-1,.75.75,0,0,0,.6-1,5.43,5.43,0,0,0,.47-5.85c-1.39-2.59-4.25-3.22-7-2.79a5.92,5.92,0,0,0-3.65,1.69,3.51,3.51,0,0,0-.52,3.5,9.84,9.84,0,0,0,1.92,3A9.67,9.67,0,0,0,855.89,576.71Z"/><path class="cls-37" d="M797.84,324.07a4.35,4.35,0,0,0,4.28-.05,2.4,2.4,0,0,0,.78-1,.76.76,0,0,0,.6-1,5.45,5.45,0,0,0,.48-5.85c-1.4-2.58-4.26-3.21-7-2.79a5.88,5.88,0,0,0-3.65,1.7,3.51,3.51,0,0,0-.52,3.5,12.09,12.09,0,0,0,5,5.47Z"/><path class="cls-37" d="M844.68,640.18l.21,0a.66.66,0,0,0,.3-.07.8.8,0,0,0,.4-.35l.1-.16a3,3,0,0,1,.31-.31,2.71,2.71,0,0,1,.37-.21,1.86,1.86,0,0,1,.46-.13.78.78,0,0,0,.52-.23.82.82,0,0,0,.23-.58,1,1,0,0,0-.23-.55.82.82,0,0,0-.81-.74l-2.48,0a.82.82,0,0,0-.78.61,2.15,2.15,0,0,0,.17,1.59,2.12,2.12,0,0,0,.44.59A2.44,2.44,0,0,0,844.68,640.18Z"/><path class="cls-37" d="M798.21,554.25a2.66,2.66,0,0,0-2.8,0,.81.81,0,0,0-.4.7h0a.46.46,0,0,0-.16.11.81.81,0,0,0,0,1.14l.85.9a.81.81,0,0,0,1.15,0,.72.72,0,0,0,.2-.36.7.7,0,0,0,0-.14.9.9,0,0,0,.36-.19l.93-.86a.8.8,0,0,0,.23-.68A.85.85,0,0,0,798.21,554.25Z"/><path class="cls-37" d="M96.39,648.12c-2.45-1.6-7.06-1.45-9.35.58-1.82,1.63-1.08,3.47.27,4.94a3.5,3.5,0,0,0,.14.46,2.42,2.42,0,0,0,1,1.09,3.4,3.4,0,0,0,.9.84c1.46.88,2.87.57,4.38-.12s3.48-1.93,4.14-3.46A3.43,3.43,0,0,0,96.39,648.12Z"/><path class="cls-37" d="M110.47,655.81c-.28-.49-.58-1-.88-1.43a20,20,0,0,0-2-2.65,4.62,4.62,0,0,0-1.27-1,.87.87,0,0,0-.53-.2,2.42,2.42,0,0,0-.89-.1,2.62,2.62,0,0,0-2.18,1.75,2.21,2.21,0,0,0,0,1.66h0a.83.83,0,0,0,.29,1.11l.06,0a2.6,2.6,0,0,0,.13,1.23,3.6,3.6,0,0,0,2.1,2,8.55,8.55,0,0,0,3.1.42,2.28,2.28,0,0,0,2.35-1.24A2,2,0,0,0,110.47,655.81Z"/><path class="cls-37" d="M125,661.36a4.34,4.34,0,0,0-3-3,2.52,2.52,0,0,0-1.28.15.75.75,0,0,0-1.1.26,5.43,5.43,0,0,0-4.51,3.75c-.86,2.81.69,5.3,2.89,6.92a5.81,5.81,0,0,0,3.77,1.42,3.49,3.49,0,0,0,2.86-2.08,9.73,9.73,0,0,0,.77-3.45A9.59,9.59,0,0,0,125,661.36Z"/><path class="cls-37" d="M101.62,664a2.66,2.66,0,0,0-2.8,0,.82.82,0,0,0-.4.7h0a.46.46,0,0,0-.16.11.82.82,0,0,0,0,1.14l.85.9a.85.85,0,0,0,.79.21.82.82,0,0,0,.57-.57s0-.1,0-.14a.93.93,0,0,0,.35-.19l.94-.87a.8.8,0,0,0,.22-.68A.85.85,0,0,0,101.62,664Z"/></g><polygon class="cls-38" points="253.27 504.05 244.56 490.79 241.37 476.8 239.78 465.07 236.67 461.05 231.52 453.07 231.74 436.19 241.37 458.82 241.37 467.94 253.27 504.05"/></g></g></svg>