<svg xmlns="http://www.w3.org/2000/svg" xmlns:xlink="http://www.w3.org/1999/xlink" viewBox="0 0 1106.04 983.44"><defs><style>.cls-1{isolation:isolate;}.cls-10,.cls-11,.cls-12,.cls-13,.cls-14,.cls-15,.cls-2,.cls-3,.cls-4,.cls-5,.cls-6,.cls-7,.cls-8,.cls-9{fill-rule:evenodd;}.cls-2{fill:url(#Áåçûìÿííûé_ãðàäèåíò_644);}.cls-3{fill:url(#Áåçûìÿííûé_ãðàäèåíò_640);}.cls-4{fill:url(#Áåçûìÿííûé_ãðàäèåíò_659);}.cls-5{fill:url(#Áåçûìÿííûé_ãðàäèåíò_659-2);}.cls-6{fill:url(#Áåçûìÿííûé_ãðàäèåíò_659-3);}.cls-7{fill:url(#Áåçûìÿííûé_ãðàäèåíò_654);}.cls-8{fill:#756aca;}.cls-11,.cls-9{opacity:0.5;mix-blend-mode:multiply;}.cls-9{fill:url(#Áåçûìÿííûé_ãðàäèåíò_27);}.cls-10{fill:#c49fcc;mix-blend-mode:soft-light;}.cls-11{fill:url(#Áåçûìÿííûé_ãðàäèåíò_322);}.cls-12{fill:url(#Áåçûìÿííûé_ãðàäèåíò_654-2);}.cls-13{fill:#756abb;}.cls-14{fill:url(#Áåçûìÿííûé_ãðàäèåíò_654-3);}.cls-15{fill:#7551bb;}</style><linearGradient id="Áåçûìÿííûé_ãðàäèåíò_644" x1="553.02" y1="826.45" x2="553.02" y2="232.25" gradientUnits="userSpaceOnUse"><stop offset="0" stop-color="#3d2888"/><stop offset="0.26" stop-color="#311b7b"/><stop offset="0.65" stop-color="#240e6e"/><stop offset="1" stop-color="#200969"/></linearGradient><linearGradient id="Áåçûìÿííûé_ãðàäèåíò_640" x1="308.97" y1="825.44" x2="308.97" y2="299.5" gradientUnits="userSpaceOnUse"><stop offset="0" stop-color="#638afe"/><stop offset="1" stop-color="#5234de"/></linearGradient><linearGradient id="Áåçûìÿííûé_ãðàäèåíò_659" x1="468.18" y1="534.83" x2="468.18" y2="414.64" gradientUnits="userSpaceOnUse"><stop offset="0" stop-color="#240061"/><stop offset="1" stop-color="#1b0531"/></linearGradient><linearGradient id="Áåçûìÿííûé_ãðàäèåíò_659-2" x1="261.04" y1="587.46" x2="997.03" y2="587.46" xlink:href="#Áåçûìÿííûé_ãðàäèåíò_659"/><linearGradient id="Áåçûìÿííûé_ãðàäèåíò_659-3" x1="538.97" y1="825.44" x2="538.97" y2="754.93" xlink:href="#Áåçûìÿííûé_ãðàäèåíò_659"/><linearGradient id="Áåçûìÿííûé_ãðàäèåíò_654" x1="738.66" y1="448.63" x2="738.66" y2="232.68" gradientUnits="userSpaceOnUse"><stop offset="0" stop-color="#01003e"/><stop offset="1" stop-color="#1b0531"/></linearGradient><linearGradient id="Áåçûìÿííûé_ãðàäèåíò_27" x1="246.72" y1="502.07" x2="668.7" y2="502.07" gradientUnits="userSpaceOnUse"><stop offset="0" stop-color="#b87cbd"/><stop offset="1" stop-color="#451391"/></linearGradient><linearGradient id="Áåçûìÿííûé_ãðàäèåíò_322" x1="295.36" y1="596.19" x2="945.54" y2="596.19" gradientUnits="userSpaceOnUse"><stop offset="0" stop-color="#977cff"/><stop offset="1" stop-color="#4513b6"/></linearGradient><linearGradient id="Áåçûìÿííûé_ãðàäèåíò_654-2" x1="148.64" y1="351.12" x2="849.37" y2="351.12" xlink:href="#Áåçûìÿííûé_ãðàäèåíò_654"/><linearGradient id="Áåçûìÿííûé_ãðàäèåíò_654-3" x1="829.93" y1="498.79" x2="829.93" y2="475.07" xlink:href="#Áåçûìÿííûé_ãðàäèåíò_654"/></defs><g class="cls-1"><g id="space_background" data-name="space background"><path class="cls-2" d="M997.07,475.07s-22.67,24.48-51.53,50.77c-21.68,19.8-46.84,40.58-68.6,52.81l-26.36,13.23-216,108L622.49,722.2l-9.44,17.53-8.24,15.18L553,825.48s-53.94,2.19-79.85,0l-67.77-77.06-39.44-45-25-28.4-25.31-8.31-20.24-6.65-34.3-11.26-66.71-62.71-14.21-13.29-13.07-12.32L139,534.16,109,505.9s23.2-28.63,39.67-36.34l28.71-58.4S294.07,302.06,355.8,273.43c0,0,204.89-46.24,440.68-40.72l12.17,62.78,40.72-4.38,57.42,71.55L947,412.75l38.91,48.42.22.23,2.42,3Z"/><path class="cls-3" d="M312.53,299.5l32.25,159.05,85.94,70.77,4.4,26.18-8.81,57.3,82.63,156.45-35.8,56.19L340.91,675.05,261,648.86,109,505.92l42.28-42.41,26-52.34S281.58,319.19,312.53,299.5Z"/><path class="cls-4" d="M246.72,529.32l98.06-70.77,344.86-43.91-20.94,34-238,80.69S323.84,541.71,246.72,529.32Z"/><polygon class="cls-5" points="261.04 648.86 435.13 555.5 625.73 510.33 997.03 475.07 876.94 578.64 634.55 699.84 426.31 612.8 349.19 675.05 261.04 648.86"/><path class="cls-6" d="M473.14,825.44l35.8-56.19,95.86-14.32S575.05,807.81,553,825.44Z"/><polygon class="cls-7" points="668.7 448.63 808.63 295.49 796.51 232.68 689.63 414.64 668.7 448.63"/><polygon class="cls-8" points="334.14 466.23 341.83 443.99 381.3 455.11 334.14 466.23"/><polygon class="cls-8" points="501.75 755.63 495.71 793.88 521.43 767.38 501.75 755.63"/><polygon class="cls-9" points="246.72 529.32 435.13 555.5 625.73 510.33 668.7 448.63 430.72 529.32 246.72 529.32"/><path class="cls-10" d="M947,412.75c-7.86-2.8-15.72-7.63-22.29-12.32-41.25-28.86-87.94-49.64-136.52-62.78-12.09-3.25-24.48-6.2-35.13-12.69-4.61-2.8-9-6.35-14.2-7.86-6-1.74-12.39-.61-18.59.45-118.69,19.65-245.54-3.62-356.67,42.54-13,5.36-25.76,11.78-36.42,21-19.41,16.62-30.44,41.18-48.2,59.53-15.11,15.57-34.45,26.14-51.52,39.37-22.74,17.67-45.11,42.23-56.44,69a121.75,121.75,0,0,0-3.93,11.56L139,534.16c42.31-40.27,92.62-72,129.72-117.56,21.53-26.44,40.87-55.91,69.58-74.19,24.33-15.49,53.26-21.68,81.67-26.6,101.39-17.37,204.51-22,307.34-26.51,10.73-.46,21.61-.91,32.11,1.13,8.31,1.59,16.24,4.76,24,8a802.25,802.25,0,0,1,123.38,64.22Z"/><path class="cls-10" d="M991.63,471.22C919,466.61,854.28,425.59,785,403.15c-118.54-38.38-247-21.38-370.5-3.93-19,2.65-38.3,5.44-55.83,13.3-20.55,9.22-37.4,24.78-53.34,40.65-12,11.86-75.32,92.92-111,133l-14.21-13.29c11.79-7.48,23.2-19,34.08-31.21,33-36.86,68.67-72.6,99.57-111.21,8.08-9.06,16.47-18.35,27.12-24.1,8.62-4.68,18.36-6.87,28-8.91a2125.61,2125.61,0,0,1,327.58-44.2c6.88-.38,14.51-.53,19.95,3.7,5.14,3.93,7.18,10.66,11.41,15.49,11.71,13.22,32.79,7.1,50.39,7.71,23.5.9,43.89,15.56,64.14,27.5a321.61,321.61,0,0,0,108.72,40c12.24,2.19,26.67,5.29,34.83,13.52l.22.23,2.42,3A20,20,0,0,1,991.63,471.22Z"/><path class="cls-10" d="M622.49,722.2l-9.44,17.53A325.73,325.73,0,0,0,491.79,697.5c-13.3-1.82-27.43-2.72-39.59,2.94-9.22,4.31-16.4,12-23.12,19.65q-12.24,13.81-23.72,28.33l-39.44-45c27.05-14.8,58.25-34.45,87.19-35.05,9.59-.23,19,1.74,28.4,3.78l84.32,17.9c15.18,3.25,30.9,6.73,43.36,16A44.26,44.26,0,0,1,622.49,722.2Z"/><path class="cls-11" d="M945.54,525.84c-21.68,19.8-46.84,40.58-68.6,52.81l-26.36,13.23c-30.15-23.65-74.5-23.12-113.86-20.78l-129.19,7.71c-60.51,3.62-121.71,7.4-179.73,24.93-43.45,13.07-80.46,33.92-112.2,63l-20.24-6.65c23.79-16.77,57.57-32,66.93-37.4,32.79-19,65.88-38.3,102.15-49.41,61.12-18.74,126.55-13.15,190.31-16.85C752.06,550.7,848.69,522.9,945.54,525.84Z"/><polygon class="cls-12" points="177.31 411.17 187.79 447.57 333.2 401.46 381.3 361.81 494.2 374.36 739.22 304.81 771.32 299.5 796.51 232.68 808.63 295.49 849.37 291.11 760.94 313.56 503.12 378.95 395.75 391.81 334.14 410.66 188.33 457.48 148.64 469.56 177.31 411.17"/><polygon class="cls-13" points="808.63 295.49 763.24 308.86 542.97 366.58 503.12 378.95 395.75 391.81 334.14 410.66 180.14 457.48 148.64 469.56 128.8 486.06 319 424.67 334.14 414.64 398.17 399.05 468.18 387.08 514.73 393.42 590.51 360.28 766.6 318.31 849.37 291.11 808.63 295.49"/><polygon class="cls-14" points="773.36 496.06 849.17 475.07 886.51 485.57 826.57 498.79 773.36 496.06"/><polygon class="cls-15" points="773.36 496.06 829.93 490.94 886.51 485.57 826.57 503.24 773.36 496.06"/></g></g></svg>